<?xml version="1.0" encoding="UTF-8"?>
<!DOCTYPE svg PUBLIC "-//W3C//DTD SVG 1.1//EN" "http://www.w3.org/Graphics/SVG/1.1/DTD/svg11.dtd">
<svg version="1.1" xmlns="http://www.w3.org/2000/svg" x="0" y="0"
     width="1280" height="720" viewBox="0, 0, 1280, 720">
    <g id="thumb_bg">
        <path d="M184.5,704.5 C120.435,704.5 68.5,652.565 68.5,588.5 C68.5,524.435 120.435,472.5 184.5,472.5 C248.565,472.5 300.5,524.435 300.5,588.5 C300.5,652.565 248.565,704.5 184.5,704.5 z"
              fill="#FFFFFF" fill-opacity="0.5"/>
        <path d="M184.5,704.5 C120.435,704.5 68.5,652.565 68.5,588.5 C68.5,524.435 120.435,472.5 184.5,472.5 C248.565,472.5 300.5,524.435 300.5,588.5 C300.5,652.565 248.565,704.5 184.5,704.5 z"
              fill-opacity="0" stroke="#000000" stroke-width="5"/>
    </g>
    <g id="thumb">
        <path d="M184.5,668.25 C140.455,668.25 104.75,632.545 104.75,588.5 C104.75,544.455 140.455,508.75 184.5,508.75 C228.545,508.75 264.25,544.455 264.25,588.5 C264.25,632.545 228.545,668.25 184.5,668.25 z"
              fill="#FFFFFF" fill-opacity="0.5"/>
        <path d="M184.5,668.25 C140.455,668.25 104.75,632.545 104.75,588.5 C104.75,544.455 140.455,508.75 184.5,508.75 C228.545,508.75 264.25,544.455 264.25,588.5 C264.25,632.545 228.545,668.25 184.5,668.25 z"
              fill-opacity="0" stroke="#000000" stroke-width="5"/>
    </g>
    <g id="home">
        <g>
            <path d="M342.5,600.5 L534.5,600.5 L534.5,672.5 C534.5,690.173 520.173,704.5 502.5,704.5 L374.5,704.5 C356.827,704.5 342.5,690.173 342.5,672.5 C342.5,632.5 342.5,600.5 342.5,600.5 z"
                  fill="#FFFFFF" fill-opacity="0.5"/>
            <path d="M342.5,600.5 L534.5,600.5 L534.5,672.5 C534.5,690.173 520.173,704.5 502.5,704.5 L374.5,704.5 C356.827,704.5 342.5,690.173 342.5,672.5 C342.5,632.5 342.5,600.5 342.5,600.5 z"
                  fill-opacity="0" stroke="#000000" stroke-width="5"/>
        </g>
        <text transform="matrix(1, 0, 0, 1, 438.5, 647.764)">
            <tspan x="-61.617" y="15.5" font-family="LaoSangamMN" font-size="46" fill="#000000">HOME</tspan>
        </text>
    </g>
    <g id="load">
        <g>
            <path d="M579.5,600.5 L771.5,600.5 L771.5,672.5 C771.5,690.173 757.173,704.5 739.5,704.5 L611.5,704.5 C593.827,704.5 579.5,690.173 579.5,672.5 C579.5,632.5 579.5,600.5 579.5,600.5 z"
                  fill="#FFFFFF" fill-opacity="0.5"/>
            <path d="M579.5,600.5 L771.5,600.5 L771.5,672.5 C771.5,690.173 757.173,704.5 739.5,704.5 L611.5,704.5 C593.827,704.5 579.5,690.173 579.5,672.5 C579.5,632.5 579.5,600.5 579.5,600.5 z"
                  fill-opacity="0" stroke="#000000" stroke-width="5"/>
        </g>
        <text transform="matrix(1, 0, 0, 1, 675.5, 647.764)">
            <tspan x="-58.029" y="15.5" font-family="LaoSangamMN" font-size="46" fill="#000000">LOAD</tspan>
        </text>
    </g>
    <g id="start">
        <g>
            <path d="M1052.5,600.5 L1244.5,600.5 L1244.5,672.5 C1244.5,690.173 1230.173,704.5 1212.5,704.5 L1084.5,704.5 C1066.827,704.5 1052.5,690.173 1052.5,672.5 C1052.5,632.5 1052.5,600.5 1052.5,600.5 z"
                  fill="#FFFFFF" fill-opacity="0.5"/>
            <path d="M1052.5,600.5 L1244.5,600.5 L1244.5,672.5 C1244.5,690.173 1230.173,704.5 1212.5,704.5 L1084.5,704.5 C1066.827,704.5 1052.5,690.173 1052.5,672.5 C1052.5,632.5 1052.5,600.5 1052.5,600.5 z"
                  fill-opacity="0" stroke="#000000" stroke-width="5"/>
        </g>
        <text transform="matrix(1, 0, 0, 1, 1148.5, 647.764)">
            <tspan x="-69.897" y="15.5" font-family="LaoSangamMN" font-size="46" fill="#000000">START</tspan>
        </text>
    </g>
    <g id="select">
        <g>
            <path d="M812.5,600.5 L1004.5,600.5 L1004.5,672.5 C1004.5,690.173 990.173,704.5 972.5,704.5 L844.5,704.5 C826.827,704.5 812.5,690.173 812.5,672.5 C812.5,632.5 812.5,600.5 812.5,600.5 z"
                  fill="#FFFFFF" fill-opacity="0.5"/>
            <path d="M812.5,600.5 L1004.5,600.5 L1004.5,672.5 C1004.5,690.173 990.173,704.5 972.5,704.5 L844.5,704.5 C826.827,704.5 812.5,690.173 812.5,672.5 C812.5,632.5 812.5,600.5 812.5,600.5 z"
                  fill-opacity="0" stroke="#000000" stroke-width="5"/>
        </g>
        <text transform="matrix(1, 0, 0, 1, 908.5, 647.764)">
            <tspan x="-83.835" y="15.5" font-family="LaoSangamMN" font-size="46" fill="#000000">SELECT</tspan>
        </text>
    </g>
    <g id="left">
        <g>
            <path d="M33.893,273.915 C33.893,260.549 45.355,249.715 59.493,249.715 L102.49,249.715 C119.557,249.715 153.69,286.015 153.69,298.115 C153.69,310.215 119.557,346.515 102.49,346.515 L59.493,346.515 C45.355,346.514 33.893,335.68 33.893,322.315 L33.893,273.915 z"
                  fill="#FFFFFF" fill-opacity="0.5"/>
            <path d="M33.893,273.915 C33.893,260.549 45.355,249.715 59.493,249.715 L102.49,249.715 C119.557,249.715 153.69,286.015 153.69,298.115 C153.69,310.215 119.557,346.515 102.49,346.515 L59.493,346.515 C45.355,346.514 33.893,335.68 33.893,322.315 L33.893,273.915 z"
                  fill-opacity="0" stroke="#000000" stroke-width="5.5"/>
        </g>
        <g>
            <path d="M104.293,328.915 L51.493,298.115 L104.293,267.315 z" fill="#FFFFFF" fill-opacity="0.5"/>
            <path d="M104.293,328.915 L51.493,298.115 L104.293,267.315 z" fill-opacity="0" stroke="#000000"
                  stroke-width="5.5"/>
        </g>
    </g>
    <g id="right">
        <g>
            <path d="M335.107,322.315 C335.107,335.68 323.645,346.515 309.507,346.515 L266.51,346.514 C249.443,346.515 215.31,310.215 215.31,298.115 C215.31,286.015 249.443,249.715 266.51,249.715 L309.507,249.715 C323.645,249.715 335.107,260.55 335.107,273.915 L335.107,322.315 z"
                  fill="#FFFFFF" fill-opacity="0.5"/>
            <path d="M335.107,322.315 C335.107,335.68 323.645,346.515 309.507,346.515 L266.51,346.514 C249.443,346.515 215.31,310.215 215.31,298.115 C215.31,286.015 249.443,249.715 266.51,249.715 L309.507,249.715 C323.645,249.715 335.107,260.55 335.107,273.915 L335.107,322.315 z"
                  fill-opacity="0" stroke="#000000" stroke-width="5.5"/>
        </g>
        <g>
            <path d="M264.707,267.315 L317.507,298.115 L264.707,328.915 z" fill="#FFFFFF" fill-opacity="0.5"/>
            <path d="M264.707,267.315 L317.507,298.115 L264.707,328.915 z" fill-opacity="0" stroke="#000000"
                  stroke-width="5.5"/>
        </g>
    </g>
    <g id="down">
        <g>
            <path d="M160.31,448.711 C146.945,448.711 136.11,437.25 136.11,423.111 L136.11,380.115 C136.11,363.048 172.41,328.915 184.51,328.915 C196.61,328.915 232.91,363.048 232.91,380.115 L232.91,423.111 C232.91,437.25 222.075,448.711 208.71,448.711 L160.31,448.711 z"
                  fill="#FFFFFF" fill-opacity="0.5"/>
            <path d="M160.31,448.711 C146.945,448.711 136.11,437.25 136.11,423.111 L136.11,380.115 C136.11,363.048 172.41,328.915 184.51,328.915 C196.61,328.915 232.91,363.048 232.91,380.115 L232.91,423.111 C232.91,437.25 222.075,448.711 208.71,448.711 L160.31,448.711 z"
                  fill-opacity="0" stroke="#000000" stroke-width="5.5"/>
        </g>
        <g>
            <path d="M215.31,378.311 L184.51,431.111 L153.71,378.311 z" fill="#FFFFFF" fill-opacity="0.5"/>
            <path d="M215.31,378.311 L184.51,431.111 L153.71,378.311 z" fill-opacity="0" stroke="#000000"
                  stroke-width="5.5"/>
        </g>
    </g>
    <g id="up">
        <g>
            <path d="M208.71,144.289 C222.075,144.289 232.91,155.75 232.91,169.889 L232.91,212.885 C232.91,229.952 196.61,264.085 184.51,264.085 C172.41,264.085 136.11,229.952 136.11,212.885 L136.11,169.889 C136.11,155.75 146.945,144.289 160.31,144.289 L208.71,144.289 z"
                  fill="#FFFFFF" fill-opacity="0.5"/>
            <path d="M208.71,144.289 C222.075,144.289 232.91,155.75 232.91,169.889 L232.91,212.885 C232.91,229.952 196.61,264.085 184.51,264.085 C172.41,264.085 136.11,229.952 136.11,212.885 L136.11,169.889 C136.11,155.75 146.945,144.289 160.31,144.289 L208.71,144.289 z"
                  fill-opacity="0" stroke="#000000" stroke-width="5.5"/>
        </g>
        <g>
            <path d="M153.71,214.689 L184.51,161.889 L215.31,214.689 z" fill="#FFFFFF" fill-opacity="0.5"/>
            <path d="M153.71,214.689 L184.51,161.889 L215.31,214.689 z" fill-opacity="0" stroke="#000000"
                  stroke-width="5.5"/>
        </g>
    </g>
    <g id="trigger_l">
        <g>
            <path d="M276.5,119.236 L84.5,119.236 L84.5,47.236 C84.5,29.563 98.827,15.236 116.5,15.236 L244.5,15.236 C262.173,15.236 276.5,29.563 276.5,47.236 C276.5,87.236 276.5,119.236 276.5,119.236 z"
                  fill="#FFFFFF" fill-opacity="0.5"/>
            <path d="M276.5,119.236 L84.5,119.236 L84.5,47.236 C84.5,29.563 98.827,15.236 116.5,15.236 L244.5,15.236 C262.173,15.236 276.5,29.563 276.5,47.236 C276.5,87.236 276.5,119.236 276.5,119.236 z"
                  fill-opacity="0" stroke="#000000" stroke-width="5"/>
        </g>
        <text transform="matrix(1, 0, 0, 1, 180.5, 62.5)">
            <tspan x="-12.075" y="15.5" font-family="LaoSangamMN" font-size="46" fill="#000000">L</tspan>
        </text>
    </g>
    <g id="trigger_r">
        <g>
            <path d="M1188.498,119.236 L996.498,119.236 L996.498,47.236 C996.498,29.563 1010.825,15.236 1028.498,15.236 L1156.498,15.236 C1174.171,15.236 1188.498,29.563 1188.498,47.236 C1188.498,87.236 1188.498,119.236 1188.498,119.236 z"
                  fill="#FFFFFF" fill-opacity="0.5"/>
            <path d="M1188.498,119.236 L996.498,119.236 L996.498,47.236 C996.498,29.563 1010.825,15.236 1028.498,15.236 L1156.498,15.236 C1174.171,15.236 1188.498,29.563 1188.498,47.236 C1188.498,87.236 1188.498,119.236 1188.498,119.236 z"
                  fill-opacity="0" stroke="#000000" stroke-width="5"/>
        </g>
        <text transform="matrix(1, 0, 0, 1, 1092.498, 62.5)">
            <tspan x="-13.938" y="15.5" font-family="LaoSangamMN" font-size="46" fill="#000000">R</tspan>
        </text>
    </g>
    <g id="cross">
        <g>
            <path d="M1092.497,488.5 C1059.286,488.5 1032.364,462.234 1032.364,429.833 C1032.364,397.433 1059.286,371.167 1092.497,371.167 C1125.708,371.167 1152.63,397.433 1152.63,429.833 C1152.63,462.234 1125.708,488.5 1092.497,488.5 z"
                  fill="#FFFFFF" fill-opacity="0.5"/>
            <path d="M1092.497,488.5 C1059.286,488.5 1032.364,462.234 1032.364,429.833 C1032.364,397.433 1059.286,371.167 1092.497,371.167 C1125.708,371.167 1152.63,397.433 1152.63,429.833 C1152.63,462.234 1125.708,488.5 1092.497,488.5 z"
                  fill-opacity="0" stroke="#000000" stroke-width="5.5"/>
        </g>
        <g>
            <path d="M1126.53,396.63 L1058.464,463.036 M1126.53,463.036 L1058.464,396.63" fill="#FFFFFF"
                  fill-opacity="0.5"/>
            <path d="M1126.53,396.63 L1058.464,463.036 M1126.53,463.036 L1058.464,396.63" fill-opacity="0"
                  stroke="#000000" stroke-width="5.5"/>
        </g>
    </g>
    <g id="square">
        <g>
            <path d="M972.232,371.167 C939.021,371.167 912.098,344.901 912.098,312.5 C912.098,280.099 939.021,253.833 972.232,253.833 C1005.442,253.833 1032.365,280.099 1032.365,312.5 C1032.365,344.901 1005.442,371.167 972.232,371.167 z"
                  fill="#FFFFFF" fill-opacity="0.5"/>
            <path d="M972.232,371.167 C939.021,371.167 912.098,344.901 912.098,312.5 C912.098,280.099 939.021,253.833 972.232,253.833 C1005.442,253.833 1032.365,280.099 1032.365,312.5 C1032.365,344.901 1005.442,371.167 972.232,371.167 z"
                  fill-opacity="0" stroke="#000000" stroke-width="5.5"/>
        </g>
        <g>
            <path d="M942.766,283.753 L1001.697,283.753 L1001.697,341.247 L942.766,341.247 z" fill="#FFFFFF"
                  fill-opacity="0.5"/>
            <path d="M942.766,283.753 L1001.697,283.753 L1001.697,341.247 L942.766,341.247 z" fill-opacity="0"
                  stroke="#000000" stroke-width="5.5"/>
        </g>
    </g>
    <g id="circle">
        <g>
            <path d="M1212.764,371.167 C1179.553,371.167 1152.63,344.901 1152.63,312.5 C1152.63,280.099 1179.553,253.833 1212.764,253.833 C1245.974,253.833 1272.897,280.099 1272.897,312.5 C1272.897,344.901 1245.974,371.167 1212.764,371.167 z"
                  fill="#FFFFFF" fill-opacity="0.5"/>
            <path d="M1212.764,371.167 C1179.553,371.167 1152.63,344.901 1152.63,312.5 C1152.63,280.099 1179.553,253.833 1212.764,253.833 C1245.974,253.833 1272.897,280.099 1272.897,312.5 C1272.897,344.901 1245.974,371.167 1212.764,371.167 z"
                  fill-opacity="0" stroke="#000000" stroke-width="5.5"/>
        </g>
        <g>
            <path d="M1212.764,349.46 C1191.841,349.46 1174.88,332.912 1174.88,312.5 C1174.88,292.088 1191.841,275.54 1212.764,275.54 C1233.686,275.54 1250.648,292.088 1250.648,312.5 C1250.648,332.912 1233.686,349.46 1212.764,349.46 z"
                  fill="#FFFFFF" fill-opacity="0.5"/>
            <path d="M1212.764,349.46 C1191.841,349.46 1174.88,332.912 1174.88,312.5 C1174.88,292.088 1191.841,275.54 1212.764,275.54 C1233.686,275.54 1250.648,292.088 1250.648,312.5 C1250.648,332.912 1233.686,349.46 1212.764,349.46 z"
                  fill-opacity="0" stroke="#000000" stroke-width="5.5"/>
        </g>
    </g>
    <g id="triangle">
        <g>
            <path d="M1092.497,253.833 C1059.286,253.833 1032.364,227.567 1032.364,195.167 C1032.364,162.766 1059.286,136.5 1092.497,136.5 C1125.708,136.5 1152.63,162.766 1152.63,195.167 C1152.63,227.567 1125.708,253.833 1092.497,253.833 z"
                  fill="#FFFFFF" fill-opacity="0.5"/>
            <path d="M1092.497,253.833 C1059.286,253.833 1032.364,227.567 1032.364,195.167 C1032.364,162.766 1059.286,136.5 1092.497,136.5 C1125.708,136.5 1152.63,162.766 1152.63,195.167 C1152.63,227.567 1125.708,253.833 1092.497,253.833 z"
                  fill-opacity="0" stroke="#000000" stroke-width="5.5"/>
        </g>
        <g>
            <path d="M1059.195,214.773 L1092.497,158.5 L1125.799,214.773 z" fill="#FFFFFF" fill-opacity="0.5"/>
            <path d="M1059.195,214.773 L1092.497,158.5 L1125.799,214.773 z" fill-opacity="0" stroke="#000000"
                  stroke-width="5.5"/>
        </g>
    </g>
</svg>
